<svg width="32" height="32" viewBox="0 0 32 32" fill="none" xmlns="http://www.w3.org/2000/svg">
<path d="M23.9669 8.52508C26.5659 12.4445 27.8494 16.8655 27.3696 21.9551C27.3676 21.9766 27.3566 21.9964 27.3394 22.0094C25.3713 23.4917 23.4644 24.3913 21.5843 24.9879C21.5697 24.9924 21.554 24.9922 21.5395 24.9872C21.525 24.9821 21.5124 24.9726 21.5035 24.9599C21.0691 24.34 20.6745 23.6864 20.3287 23.0001C20.3089 22.9597 20.327 22.911 20.3678 22.8951C20.9946 22.6529 21.5906 22.3625 22.1639 22.0188C22.2091 21.9917 22.212 21.9253 22.1703 21.8934C22.0486 21.8008 21.9281 21.7034 21.8127 21.606C21.7911 21.588 21.7621 21.5845 21.7376 21.5966C18.0157 23.3595 13.9385 23.3595 10.1726 21.5966C10.1481 21.5854 10.1191 21.5892 10.0981 21.6069C9.983 21.7043 9.86219 21.8008 9.74166 21.8934C9.69995 21.9253 9.7034 21.9917 9.74885 22.0188C10.3221 22.3561 10.9182 22.6529 11.5441 22.8963C11.5847 22.9122 11.6039 22.9597 11.5838 23.0001C11.2455 23.6873 10.8508 24.3408 10.4084 24.9607C10.3892 24.9858 10.3575 24.9973 10.3276 24.9879C8.45643 24.3913 6.54958 23.4917 4.58146 22.0094C4.56507 21.9964 4.55327 21.9757 4.55155 21.9542C4.15056 17.5518 4.96778 13.0942 7.95102 8.52419C7.95822 8.51209 7.96915 8.50265 7.9818 8.49705C9.44969 7.80604 11.0223 7.29767 12.6659 7.00735C12.6959 7.00263 12.7258 7.01679 12.7413 7.04393C12.9444 7.41274 13.1765 7.88571 13.3336 8.27222C15.0661 8.00078 16.8257 8.00078 18.5945 8.27222C18.7515 7.89397 18.9756 7.41274 19.1778 7.04393C19.185 7.03047 19.1962 7.01968 19.2097 7.01311C19.2232 7.00654 19.2385 7.00452 19.2532 7.00735C20.8977 7.29856 22.4703 7.80693 23.937 8.49705C23.95 8.50265 23.9606 8.51209 23.9669 8.52508ZM14.2144 16.8956C14.2325 15.5941 13.3074 14.5172 12.1461 14.5172C10.9944 14.5172 10.0782 15.5847 10.0782 16.8956C10.0782 18.2062 11.0125 19.2737 12.1461 19.2737C13.2982 19.2737 14.2144 18.2062 14.2144 16.8956ZM21.8607 16.8956C21.8789 15.5941 20.9538 14.5172 19.7928 14.5172C18.6408 14.5172 17.7246 15.5847 17.7246 16.8956C17.7246 18.2062 18.6589 19.2737 19.7928 19.2737C20.9538 19.2737 21.8607 18.2062 21.8607 16.8956Z" fill="#8F8F8F"/>
</svg>
