<svg width="32" height="32" viewBox="0 0 32 32" fill="none" xmlns="http://www.w3.org/2000/svg">
<g clip-path="url(#clip0_1145_140)">
<path d="M10.7687 9.02966C14.5072 9.02966 17.5375 12.0811 17.5375 15.8449C17.5375 19.6088 14.5069 22.66 10.7687 22.66C7.03075 22.66 4 19.6088 4 15.8449C4 12.0812 7.03047 9.02966 10.7687 9.02966ZM21.5781 9.42885C23.4473 9.42885 24.9626 12.3012 24.9626 15.8449H24.9629C24.9629 19.3878 23.4476 22.261 21.5785 22.261C19.7094 22.261 18.194 19.3878 18.194 15.8449C18.194 12.3021 19.709 9.42885 21.5782 9.42885H21.5781ZM26.8097 10.0972C27.4669 10.0972 28 12.6705 28 15.845C28 19.0184 27.4671 21.5928 26.8097 21.5928C26.1522 21.5928 25.6196 19.0192 25.6196 15.845C25.6196 12.6707 26.1525 10.0972 26.8097 10.0972Z" fill="#8F8F8F"/>
</g>
<defs>
<clipPath id="clip0_1145_140">
<rect width="24" height="13.6896" fill="white" transform="translate(4 9)"/>
</clipPath>
</defs>
</svg>
