<svg width="32" height="32" viewBox="0 0 32 32" fill="none" xmlns="http://www.w3.org/2000/svg">
<path d="M12.6595 17.8777C12.5572 17.7757 12.4763 17.6544 12.4208 17.521C12.3655 17.3874 12.3372 17.2444 12.3372 17.1C12.3372 16.655 12.6053 16.2541 13.0161 16.0836C13.4273 15.9134 13.9003 16.0077 14.2149 16.3223C14.5295 16.6369 14.6238 17.1099 14.4536 17.521C14.2831 17.9319 13.8821 18.2 13.4372 18.2C13.2927 18.2 13.1496 18.1716 13.0161 18.1164C12.8828 18.0608 12.7615 17.98 12.6595 17.8777Z" fill="#8F8F8F"/>
<path d="M18.8107 19.9528C18.8096 20.0315 18.7774 20.1066 18.721 20.1616L18.7282 20.125C18.5348 20.2707 18.3294 20.3994 18.1141 20.51C17.6825 20.7312 17.2161 20.8766 16.7352 20.9398C16.4952 20.9712 16.2529 20.9819 16.0112 20.972C15.7694 20.9819 15.5272 20.9712 15.2871 20.9398C15.047 20.9082 14.8102 20.8562 14.5792 20.7842C14.3482 20.7121 14.1236 20.6205 13.9082 20.51C13.6929 20.3994 13.4875 20.2707 13.2942 20.125C13.2474 20.0681 13.2235 19.9957 13.2271 19.922C13.2306 19.8483 13.2617 19.7788 13.3137 19.7265C13.3659 19.6745 13.4355 19.6435 13.5092 19.6399C13.5829 19.6363 13.6552 19.6602 13.7122 19.707C13.8761 19.8272 14.0499 19.9333 14.2316 20.0241C14.4134 20.1148 14.6023 20.1902 14.797 20.249C14.9914 20.3081 15.1905 20.3505 15.3921 20.3755C15.5937 20.4008 15.7972 20.4091 16.0002 20.4C16.2034 20.411 16.4072 20.4049 16.6096 20.3816C16.8117 20.3582 17.0116 20.3178 17.2069 20.2608C17.4023 20.2037 17.5925 20.1302 17.7756 20.0411C17.9586 19.952 18.1338 19.8476 18.2992 19.729C18.3627 19.6814 18.4386 19.6509 18.5175 19.652C18.5962 19.6531 18.6712 19.6853 18.7262 19.7416C18.7812 19.798 18.8118 19.8739 18.8107 19.9528Z" fill="#8F8F8F"/>
<path d="M18.9539 18.2036C18.8162 18.2608 18.6682 18.2896 18.5192 18.288L18.5302 18.244C18.0852 18.244 17.6843 17.9759 17.5138 17.565C17.3435 17.1539 17.4379 16.6809 17.7525 16.3663C18.0671 16.0517 18.5401 15.9574 18.9512 16.1276C19.362 16.2981 19.6302 16.699 19.6302 17.144C19.6362 17.293 19.6118 17.4417 19.5584 17.581C19.505 17.7204 19.4242 17.8474 19.3202 17.9544C19.2163 18.0614 19.0917 18.1461 18.9539 18.2036Z" fill="#8F8F8F"/>
<path fill-rule="evenodd" clip-rule="evenodd" d="M27 16C27 22.0751 22.0751 27 16 27C9.92487 27 5 22.0751 5 16C5 9.92487 9.92487 5 16 5C22.0751 5 27 9.92487 27 16ZM23.2811 16.4466C23.3207 16.3011 23.3394 16.1507 23.3372 16C23.3259 15.6903 23.2252 15.3905 23.0473 15.1368C22.8695 14.883 22.622 14.6862 22.3348 14.57C22.0476 14.4537 21.7329 14.4231 21.4287 14.4817C21.1244 14.5402 20.8436 14.6854 20.6202 14.9C20.3094 14.6887 19.9838 14.5001 19.6458 14.3357C18.9693 14.006 18.2487 13.7758 17.5063 13.652C17.1356 13.5902 16.7608 13.555 16.3852 13.547L17.1002 10.115L19.4542 10.61C19.5119 11.1473 19.9516 11.5631 20.4915 11.5909C21.031 11.6187 21.5112 11.2502 21.6236 10.7216C21.7364 10.1931 21.4482 9.66096 20.9441 9.46626C20.44 9.27156 19.8691 9.47176 19.5972 9.93899L16.9022 9.39999C16.8582 9.39036 16.8125 9.38954 16.7682 9.39751C16.7237 9.40576 16.6813 9.42254 16.6434 9.44701C16.6057 9.47149 16.573 9.50339 16.5477 9.54051C16.5221 9.57791 16.5042 9.61971 16.4952 9.66399L15.6812 13.481C15.3008 13.4868 14.9213 13.52 14.546 13.5808C14.1706 13.6416 13.7999 13.7293 13.4372 13.8437C13.0744 13.9581 12.7205 14.0989 12.3781 14.2645C12.0358 14.4303 11.706 14.6206 11.3912 14.834C11.2216 14.6744 11.0193 14.5537 10.7984 14.4801C10.5775 14.4065 10.3433 14.3818 10.1119 14.4077C9.8805 14.4336 9.65753 14.5094 9.45842 14.63C9.25931 14.7506 9.08882 14.9131 8.95879 15.1062C8.82865 15.2994 8.74205 15.5185 8.70501 15.7484C8.66798 15.9783 8.68138 16.2136 8.74429 16.4378C8.80731 16.6619 8.91827 16.8697 9.0695 17.0467C9.22073 17.2237 9.40862 17.3657 9.62016 17.463C9.61714 17.5031 9.61466 17.5436 9.61329 17.584C9.60998 17.6646 9.60998 17.7454 9.61329 17.826C9.61466 17.8664 9.61714 17.9068 9.62016 17.947C9.62016 20.411 12.4912 22.413 16.0332 22.413C19.5752 22.413 22.4462 20.411 22.4462 17.947C22.4492 17.9068 22.4517 17.8664 22.453 17.826C22.4564 17.7454 22.4564 17.6646 22.453 17.584C22.4517 17.5436 22.4492 17.5031 22.4462 17.463C22.5812 17.3959 22.706 17.3101 22.8171 17.2081C22.9282 17.106 23.0245 16.9889 23.1029 16.8602C23.1815 16.7315 23.2415 16.5921 23.2811 16.4466Z" fill="#8F8F8F"/>
</svg>
