<svg viewBox="0 0 21 20" fill="none" xmlns="http://www.w3.org/2000/svg">
<path fill-rule="evenodd" clip-rule="evenodd" d="M17.5 1.99219V0.492188H20.5V1.99219V7.99219V9.49219H19H13H11.5V6.49219H13H15.1168C13.7664 4.59936 11.9641 3.49219 9.8261 3.49219C6.3632 3.49219 3.49999 6.3711 3.49999 9.99219C3.49999 13.6133 6.3632 16.4922 9.8261 16.4922C11.5625 16.4922 13.1385 15.7749 14.2877 14.6001L15.3367 13.5278L17.4812 15.6257L16.4323 16.698C14.749 18.4186 12.412 19.4922 9.8261 19.4922C4.64454 19.4922 0.499989 15.2076 0.499989 9.99219C0.499989 4.77674 4.64454 0.492188 9.8261 0.492188C13.142 0.492188 15.7287 2.2355 17.5 4.67058V1.99219Z"  fill-opacity="1"/>
</svg>
