<svg width="100" height="24" viewBox="0 0 100 24" fill="none" xmlns="http://www.w3.org/2000/svg">
<path d="M90.4763 0L85.7144 4.752V14.4H95.2382V9.6H90.4763V7.2L92.8572 4.8H95.2382V9.6H100V0H90.4763Z" fill="#1F1F1F"/>
<path d="M34.5239 0L29.762 4.752V14.4L34.5239 14.352V7.2L36.9048 4.8H38.0953V0H34.5239Z" fill="#1F1F1F"/>
<path d="M69.0477 19.2V0H59.5239L54.762 4.752V14.4H64.2858V19.2H69.0477ZM64.2858 9.6H59.5239V7.2L61.9048 4.8H64.2858V9.6Z" fill="#1F1F1F"/>
<path d="M44.0475 0L39.2856 4.752V19.152H44.0475V14.4H48.8095V9.6H44.0475V7.2L46.4285 4.8H48.8095V9.6H53.5714V0H44.0475Z" fill="#1F1F1F"/>
<path d="M64.2858 19.2H54.762V24H64.2858V19.2Z" fill="#1F1F1F"/>
<path d="M84.5238 19.2V0H74.9999L70.238 4.752V14.4H79.7618V19.2H84.5238ZM79.7618 9.6H74.9999V7.2L77.3809 4.8H79.7618V9.6Z" fill="#1F1F1F"/>
<path d="M79.7618 19.2H70.238V24H79.7618V19.2Z" fill="#1F1F1F"/>
<path d="M7.2 0L0 7.152V24H19.2V19.2H4.8V9.576L9.6 4.8H19.2V19.2H24V0H7.2Z" fill="#1F1F1F"/>
<path d="M4.80005 19.2H19.2V4.79999H9.60005L4.80005 9.57599V19.2Z" fill="white"/>
<path d="M16.7999 9.57599H14.3999V11.976H16.7999V9.57599Z" fill="#1F1F1F"/>
<path d="M12.0001 9.57599H9.6001V11.976H12.0001V9.57599Z" fill="#1F1F1F"/>
</svg>
