<svg width="67" height="16" viewBox="0 0 135 32" fill="none" xmlns="http://www.w3.org/2000/svg">
<path d="M121.603 0L115.203 6.336V19.2H128.003V12.8H121.603V9.6L124.803 6.4H128.003V12.8H134.403V0H121.603Z" fill="#181815"/>
<path d="M46.4 0L40 6.336V19.2L46.4 19.136V9.6L49.6 6.4H51.2V0H46.4Z" fill="#181815"/>
<path d="M92.8016 25.6V0H80.0016L73.6016 6.336V19.2H86.4016V25.6H92.8016ZM86.4016 12.8H80.0016V9.6L83.2016 6.4H86.4016V12.8Z" fill="#181815"/>
<path d="M59.1969 0L52.7969 6.336V25.536H59.1969V19.2H65.5969V12.8H59.1969V9.6L62.3969 6.4H65.5969V12.8H71.9969V0H59.1969Z" fill="#181815"/>
<path d="M86.4016 25.5996H73.6016V31.9996H86.4016V25.5996Z" fill="#181815"/>
<path d="M113.598 25.6V0H100.798L94.3984 6.336V19.2H107.198V25.6H113.598ZM107.198 12.8H100.798V9.6L103.998 6.4H107.198V12.8Z" fill="#181815"/>
<path d="M107.198 25.5996H94.3984V31.9996H107.198V25.5996Z" fill="#181815"/>
<path d="M9.6 0L0 9.536V32H25.6V25.6H6.4V12.768L12.8 6.4H25.6V25.6H32V0H9.6Z" fill="#181815"/>
<path d="M6.39844 25.6004H25.5984V6.40039H12.7984L6.39844 12.7684V25.6004Z" fill="#FFD400"/>
<path d="M22.4031 12.7676H19.2031V15.9676H22.4031V12.7676Z" fill="#181815"/>
<path d="M15.9969 12.7676H12.7969V15.9676H15.9969V12.7676Z" fill="#181815"/>
</svg>
