<svg width="32" height="32" viewBox="0 0 32 32" fill="none" xmlns="http://www.w3.org/2000/svg">
<path d="M11.9188 25C20.221 25 24.7613 18.0756 24.7613 12.071C24.7613 11.8743 24.7573 11.6786 24.7485 11.4836C25.6319 10.8401 26.3943 10.0433 27 9.13057C26.1912 9.49255 25.3209 9.73618 24.4079 9.84602C25.3398 9.28348 26.0553 8.39351 26.3928 7.33269C25.5068 7.86184 24.5374 8.23486 23.5266 8.43568C22.703 7.55242 21.5304 7 20.2319 7C17.7393 7 15.718 9.03499 15.718 11.5434C15.718 11.9001 15.7576 12.2468 15.8351 12.5796C12.0837 12.3895 8.75722 10.5813 6.53097 7.83187C6.13 8.52534 5.9191 9.31348 5.9198 10.1158C5.9198 11.6923 6.71663 13.084 7.92841 13.8983C7.21163 13.8762 6.51057 13.6813 5.8842 13.3299C5.88353 13.349 5.88353 13.3676 5.88353 13.388C5.88353 15.5886 7.43936 17.426 9.50468 17.8423C9.11678 17.9487 8.71652 18.0025 8.31449 18.0022C8.02415 18.0022 7.74119 17.9735 7.46619 17.9203C8.04083 19.7258 9.70711 21.0397 11.6827 21.0764C10.1378 22.2954 8.19174 23.0215 6.07666 23.0215C5.71686 23.0218 5.35735 23.0008 5 22.9585C6.99762 24.2476 9.36959 24.9997 11.919 24.9997" fill="#8F8F8F"/>
</svg>
